<svg xmlns="http://www.w3.org/2000/svg">
    <symbol id="magnifying-glass" viewBox="0 0 20 19">
        <path d="m19.026 17.05-3.71-3.7c1.002-1.3 1.704-3 1.704-4.9 0-4.4-3.61-8-8.023-8C4.585.45.975 4.15.975 8.55c0 4.4 3.61 8 8.022 8 1.805 0 3.51-.6 4.914-1.7l3.71 3.7 1.405-1.5Zm-10.029-2.5c-3.309 0-6.017-2.7-6.017-6s2.708-6 6.017-6c3.31 0 6.017 2.7 6.017 6s-2.707 6-6.017 6Z"/>
    </symbol>
    <symbol id="heart" viewBox="0 0 19 17">
        <path d="M9.444 17c-.301 0-.602-.1-.802-.4-5.416-6.1-6.72-7.5-7.02-7.9C.92 7.8.519 6.6.519 5.4c0-3 2.406-5.4 5.515-5.4 1.304 0 2.507.5 3.51 1.3C10.547.5 11.851 0 13.054 0c3.008 0 5.516 2.4 5.516 5.4 0 1.3-.502 2.5-1.304 3.4l-7.02 7.9c-.2.2-.401.3-.802.3ZM3.427 7.5c.3.4 3.51 4 6.117 6.9l6.218-7c.501-.5.702-1.2.702-2 0-1.8-1.505-3.3-3.31-3.3-1.002 0-2.005.5-2.707 1.3-.301.3-.602.4-.903.4-.3 0-.602-.2-.802-.4-.702-.8-1.705-1.3-2.708-1.3-1.805 0-3.31 1.5-3.31 3.3-.1.9.302 1.6.703 2.1-.1 0-.1 0 0 0Z"/>
    </symbol>
    <symbol id="site" viewBox="0 0 115 34">
        <path d="M0 12.9v2.6h2.5v-2.6H0ZM11.6 4.5c-1.6 0-2.8.7-3.6 1.7h-.1V0h-2v15.5h2v-5.3c0-2.1 1.3-3.6 3.3-3.6 1.8 0 2.9 1.4 2.9 3.2v5.7h2V9.4c.1-3-1.8-4.9-4.5-4.9ZM26.6 4.8h-4.8V1.1h-2v3.8h-1.9v2h1.9v6c0 1.7 1 2.7 2.7 2.7h4.1v-2h-3.7c-.7 0-1.1-.4-1.1-1.1V6.8h4.8v-2ZM41.1 4.6c-1.6 0-2.9.8-3.5 2.1h-.1c-.6-1.2-1.8-2.1-3.4-2.1-1.4 0-2.5.8-3.1 1.8h-.1V4.8H29v10.6h2V10c0-2 1-3.5 2.6-3.5 1.5 0 2.4 1 2.4 2.6v6.3h2V9.8c0-2.4 1.4-3.3 2.6-3.3 1.5 0 2.4 1 2.4 2.6v6.3h2V8.9c.1-2.5-1.4-4.3-3.9-4.3ZM47.8 12.7c0 1.7 1 2.7 2.8 2.7h2v-2h-1.7c-.7 0-1.1-.4-1.1-1.1V0h-2v12.7ZM28.9 19.7c-.9-1.1-2.2-1.8-3.9-1.8-3.1 0-5.4 2.3-5.4 5.6s2.3 5.6 5.4 5.6c1.8 0 3-.8 3.8-1.9h.1v1.6h2V18.2h-2v1.5Zm-3.6 7.4c-2.2 0-3.6-1.6-3.6-3.6s1.4-3.6 3.6-3.6 3.6 1.6 3.6 3.6c0 1.9-1.4 3.6-3.6 3.6ZM44.2 22c-.5-2.4-2.6-4.1-5.4-4.1-3.4 0-5.6 2.5-5.6 5.6 0 3.1 2.2 5.6 5.6 5.6 2.8 0 4.9-1.8 5.4-4.2h-2.1c-.4 1.3-1.7 2.3-3.3 2.3-2.2 0-3.6-1.6-3.6-3.6s1.4-3.6 3.6-3.6c1.6 0 2.8 1 3.3 2.2h2.1V22ZM55.1 19.7c-.9-1.1-2.2-1.8-3.9-1.8-3.1 0-5.4 2.3-5.4 5.6s2.3 5.6 5.4 5.6c1.8 0 3-.8 3.8-1.9h.1v1.6h2V18.2h-2v1.5Zm-3.6 7.4c-2.2 0-3.6-1.6-3.6-3.6s1.4-3.6 3.6-3.6 3.6 1.6 3.6 3.6c0 1.9-1.5 3.6-3.6 3.6ZM68.7 19.8c-.9-1.1-2.2-1.9-3.9-1.9-3.1 0-5.4 2.3-5.4 5.6s2.2 5.6 5.4 5.6c1.7 0 3-.8 3.8-1.8h.1v1.5h2V13.4h-2v6.4Zm-3.6 7.3c-2.2 0-3.6-1.6-3.6-3.6s1.4-3.6 3.6-3.6 3.6 1.6 3.6 3.6c-.1 2-1.5 3.6-3.6 3.6ZM78.3 17.9c-3.3 0-5.5 2.5-5.5 5.6 0 3 2.1 5.6 5.5 5.6 2.5 0 4.5-1.3 5.2-3.6h-2.1c-.5 1-1.6 1.6-3 1.6-1.9 0-3.3-1.3-3.4-2.9h8.8c.2-3.6-2-6.3-5.5-6.3Zm0 1.9c1.7 0 3 1 3.3 2.6h-6.5c.3-1.5 1.5-2.6 3.2-2.6ZM98.2 17.9c-1.6 0-2.9.8-3.6 2h-.1c-.6-1.2-1.8-2-3.4-2-1.4 0-2.5.7-3.1 1.8v-1.5h-1.9v10.6h2v-5.4c0-2 1-3.4 2.6-3.5 1.5 0 2.4 1 2.4 2.6v6.3h2v-5.6c0-2.4 1.4-3.3 2.6-3.3 1.5 0 2.4 1 2.4 2.6v6.3h2v-6.5c.1-2.6-1.4-4.4-3.9-4.4ZM109.4 27l-3.6-8.9h-2.2l4.8 11.6c-.3.9-.7 1.2-1.7 1.2h-2.5v2h2.5c1.8 0 2.8-.8 3.5-2.6l4.7-12.2h-2.1l-3.4 8.9Z"/>
    </symbol>
    <symbol id="twitter" viewBox="0 0 18 15">
        <path d="M11.6.2c1.8-.5 3.2.3 3.8 1.2.7-.2 1.4-.5 2.1-.7 0 .9-.6 1.5-.9 1.8.7.1 1.4-.6 1.4-.6-.2 1-1.1 1.8-1.7 2C16.1 10.7 13 15.1 5.7 15h-.5c-.4 0-4.4-.5-5.2-1.9 2.4.2 4.1-.4 5-1.2-1-.3-2.9-.4-3.2-2.9.4.1.6.2 1.3.1C1.8 8.3.4 7.5.5 5.3c.3.3 1.1.5 1.4.5C1.1 5.6-.2 2.5.9.9c1.9 1.9 4 3.6 7.6 3.8C8.7 2.3 9.7.8 11.6.2Z"/>
    </symbol>
    <symbol id="facebook" viewBox="0 0 10 18">
        <path d="M7 0C4.8 0 3 1.8 3 4v2H0v4h3v8h4v-8h3V6H7V4h3V0H7Z"/>
    </symbol>
    <symbol id="youtube" viewBox="0 0 20 16">
        <path d="M17 0H2.9C1.2 0 0 1.5 0 3.2v9.5C0 14.5 1.2 16 2.9 16h14.3c1.5 0 2.9-1.5 2.9-3.2V3.2C19.9 1.5 18.7 0 17 0ZM7 11.8V4.2L13.7 8 7 11.8Z"/>
    </symbol>
    <symbol id="star" viewBox="0 0 18 18">
        <path d="m9 0 2.1 6.5H18l-5.6 4 2.2 6.5L9 13l-5.6 4 2.2-6.5-5.6-4h6.9L9 0Z" fill="#83B3D3"/>
    </symbol>
</svg>